<svg id="visual" viewBox="0 0 900 600" width="900" height="600" xmlns="http://www.w3.org/2000/svg" xmlns:xlink="http://www.w3.org/1999/xlink" version="1.1"><path d="M0 109L13.7 114C27.3 119 54.7 129 82 131C109.3 133 136.7 127 163.8 131C191 135 218 149 245.2 150C272.3 151 299.7 139 327 143C354.3 147 381.7 167 409 166C436.3 165 463.7 143 491 129C518.3 115 545.7 109 573 118C600.3 127 627.7 151 654.8 167C682 183 709 191 736.2 199C763.3 207 790.7 215 818 200C845.3 185 872.7 147 886.3 128L900 109L900 0L886.3 0C872.7 0 845.3 0 818 0C790.7 0 763.3 0 736.2 0C709 0 682 0 654.8 0C627.7 0 600.3 0 573 0C545.7 0 518.3 0 491 0C463.7 0 436.3 0 409 0C381.7 0 354.3 0 327 0C299.7 0 272.3 0 245.2 0C218 0 191 0 163.8 0C136.7 0 109.3 0 82 0C54.7 0 27.3 0 13.7 0L0 0Z" fill="#6198ff"></path><path d="M0 187L13.7 195C27.3 203 54.7 219 82 224C109.3 229 136.7 223 163.8 231C191 239 218 261 245.2 258C272.3 255 299.7 227 327 219C354.3 211 381.7 223 409 231C436.3 239 463.7 243 491 234C518.3 225 545.7 203 573 202C600.3 201 627.7 221 654.8 231C682 241 709 241 736.2 246C763.3 251 790.7 261 818 254C845.3 247 872.7 223 886.3 211L900 199L900 107L886.3 126C872.7 145 845.3 183 818 198C790.7 213 763.3 205 736.2 197C709 189 682 181 654.8 165C627.7 149 600.3 125 573 116C545.7 107 518.3 113 491 127C463.7 141 436.3 163 409 164C381.7 165 354.3 145 327 141C299.7 137 272.3 149 245.2 148C218 147 191 133 163.8 129C136.7 125 109.3 131 82 129C54.7 127 27.3 117 13.7 112L0 107Z" fill="#3c80ff"></path><path d="M0 463L13.7 457C27.3 451 54.7 439 82 428C109.3 417 136.7 407 163.8 406C191 405 218 413 245.2 422C272.3 431 299.7 441 327 440C354.3 439 381.7 427 409 431C436.3 435 463.7 455 491 454C518.3 453 545.7 431 573 428C600.3 425 627.7 441 654.8 441C682 441 709 425 736.2 417C763.3 409 790.7 409 818 409C845.3 409 872.7 409 886.3 409L900 409L900 197L886.3 209C872.7 221 845.3 245 818 252C790.7 259 763.3 249 736.2 244C709 239 682 239 654.8 229C627.7 219 600.3 199 573 200C545.7 201 518.3 223 491 232C463.7 241 436.3 237 409 229C381.7 221 354.3 209 327 217C299.7 225 272.3 253 245.2 256C218 259 191 237 163.8 229C136.7 221 109.3 227 82 222C54.7 217 27.3 201 13.7 193L0 185Z" fill="#0066ff"></path><path d="M0 529L13.7 524C27.3 519 54.7 509 82 497C109.3 485 136.7 471 163.8 471C191 471 218 485 245.2 501C272.3 517 299.7 535 327 532C354.3 529 381.7 505 409 501C436.3 497 463.7 513 491 512C518.3 511 545.7 493 573 495C600.3 497 627.7 519 654.8 524C682 529 709 517 736.2 510C763.3 503 790.7 501 818 502C845.3 503 872.7 507 886.3 509L900 511L900 407L886.3 407C872.7 407 845.3 407 818 407C790.7 407 763.3 407 736.2 415C709 423 682 439 654.8 439C627.7 439 600.3 423 573 426C545.7 429 518.3 451 491 452C463.7 453 436.3 433 409 429C381.7 425 354.3 437 327 438C299.7 439 272.3 429 245.2 420C218 411 191 403 163.8 404C136.7 405 109.3 415 82 426C54.7 437 27.3 449 13.7 455L0 461Z" fill="#0059dd"></path><path d="M0 601L13.7 601C27.3 601 54.7 601 82 601C109.3 601 136.7 601 163.8 601C191 601 218 601 245.2 601C272.3 601 299.7 601 327 601C354.3 601 381.7 601 409 601C436.3 601 463.7 601 491 601C518.3 601 545.7 601 573 601C600.3 601 627.7 601 654.8 601C682 601 709 601 736.2 601C763.3 601 790.7 601 818 601C845.3 601 872.7 601 886.3 601L900 601L900 509L886.3 507C872.7 505 845.3 501 818 500C790.7 499 763.3 501 736.2 508C709 515 682 527 654.8 522C627.7 517 600.3 495 573 493C545.7 491 518.3 509 491 510C463.7 511 436.3 495 409 499C381.7 503 354.3 527 327 530C299.7 533 272.3 515 245.2 499C218 483 191 469 163.8 469C136.7 469 109.3 483 82 495C54.7 507 27.3 517 13.7 522L0 527Z" fill="#004cbb"></path></svg>