<?xml version="1.0"?>
<svg width="1280" height="1164" xmlns="http://www.w3.org/2000/svg" xmlns:svg="http://www.w3.org/2000/svg" preserveAspectRatio="xMidYMid meet">
 <metadata>Created by potrace 1.15, written by Peter Selinger 2001-2017</metadata>
 <g class="layer">
  <title>Layer 1</title>
  <path d="m178.3456,222.74182c-67.44596,5.64818 -135.78066,46.14821 -160.86305,95.24889c-7.20872,14.31301 -10.7637,29.97387 -8.68996,39.21635c0.5925,2.75991 3.85123,16.62363 7.10997,30.74408c3.25874,14.12045 8.19621,35.0444 10.86245,46.53332c2.66624,11.48892 7.60372,32.41286 10.86245,46.53332c3.25874,14.12045 8.19621,35.0444 10.86245,46.53332c2.66624,11.48892 10.17121,43.64504 16.68868,71.56503c20.53991,87.86774 24.58864,105.77504 25.18114,111.03812c1.97499,17.1371 15.70118,36.77737 37.22859,53.33681c15.30618,11.74565 39.79608,25.16008 60.33599,32.99052c6.41872,2.50317 12.5412,5.64818 20.63866,10.65452c39.20358,24.32569 87.29462,40.17911 138.2494,45.63474c12.04745,1.28368 31.99486,1.34786 89.76336,0.25674c44.23981,-0.83439 92.4296,-1.73296 143.18688,-2.63154c19.84866,-0.32092 43.64731,-0.77021 52.83102,-0.96276l16.78743,-0.3851l70.1122,31.25755c154.93808,68.99768 197.30165,87.73937 199.86913,88.38121c5.23373,1.28368 12.04745,-1.28368 13.52869,-4.94216c0.395,-1.15531 -6.02372,-20.53884 -19.35492,-58.66407c-11.05995,-31.32174 -20.24366,-57.25203 -20.44116,-57.63713c-0.49375,-0.83439 18.26867,-1.15531 116.22825,-2.24644c33.96985,-0.32092 66.06346,-0.89857 71.39594,-1.21949c61.22474,-3.91522 108.82203,-27.91999 128.96694,-65.01828c6.12247,-11.42473 9.28246,-22.07926 10.46745,-35.75042c0.5925,-7.38115 8.39371,-58.66407 22.21865,-146.33926c1.57999,-10.07687 4.64123,-29.84551 6.91247,-43.96596c7.40622,-47.88118 17.77492,-114.18313 20.44116,-130.93513c2.36999,-15.33995 2.46874,-17.32965 1.38249,-25.03172c-1.38249,-10.46197 -3.15999,-15.9176 -8.09746,-25.67355c-4.83873,-9.69177 -13.82494,-21.30905 -22.41615,-29.20367c-15.99743,-14.63393 -41.67232,-28.94693 -64.68097,-36.00716c-4.54248,-1.34786 -8.19621,-3.40175 -16.19493,-8.92156c-20.14491,-13.79954 -40.48732,-22.78528 -66.45846,-29.20367c-17.67617,-4.3645 -33.57485,-6.29002 -61.71848,-7.38115c-17.67617,-0.70602 -178.44048,-8.08717 -731.73433,-33.69654c-56.9785,-2.63154 -106.15579,-4.74961 -109.11828,-4.74961c-2.96249,0.06418 -8.49246,0.3851 -12.3437,0.64184l0.00001,0.00001z" fill="black" id="svg_2"/>
  <text fill="#000000" font-family="serif" font-size="24" id="svg_1" stroke-width="0" text-anchor="middle" x="264" xml:space="preserve" y="202"/>
 </g>
</svg>