<svg version="1" xmlns="http://www.w3.org/2000/svg" width="2690.7" height="1268" viewBox="0 0 2018 951">
    <!-- Path branco preenchido -->
    <path fill="#ffffff" d="M 87.3 32.4 C 66.7 37.8 50.8 55.7 46.8 78.5 C 45.7 84 49.8 659.6 51 672.9 c 1.3 14.9 5.9 25.3 15.7 36 c 7 7.6 16.8 13.1 27.2 15.3 c 7.1 1.5 10 1.3 592.5 -36.5 c 322 -20.8 586.2 -37.8 587.1 -37.8 c 1.3 0 33.5 38.1 107.6 127.5 c 58.3 70.1 105.9 127.1 106.1 126.8 c 0.1 -0.4 -7.9 -60.2 -17.9 -133.1 c -10 -72.8 -18 -132.6 -17.9 -132.7 c 0.2 -0.2 62.2 -4.2 137.9 -9.1 c 75.7 -4.9 140.5 -9.2 144 -9.8 c 12.5 -1.8 22 -6.9 31.2 -16.6 c 10 -10.7 15.3 -23.2 16.1 -37.8 c 0.4 -8.4 -30.7 -421.2 -32.5 -431 c -2.1 -11.1 -8.5 -24 -16.5 -33 c -8.7 -9.7 -22.2 -17.6 -34.2 -20 c -5.9 -1.1 -161.6 -6.2 -797.3 -25.8 C 465.5 42 106.1 31 101.1 31 c -5 0 -11.2 0.6 -13.8 1.3 z m 839.4 59.9 c 420.8 9.9 767.1 18.1 769.7 18.3 c 9 0.9 18.9 8.4 23.2 17.7 c 1.1 2.4 2.4 7.3 2.8 10.9 c 0.9 7 22.2 383.1 22.4 394.7 c 0.1 4.5 -0.3 8.6 -1.4 11.7 c -2.7 8.6 -11.8 17.3 -19.9 19.1 c -1.4 0.3 -71.9 5.5 -156.6 11.6 c -84.7 6.2 -154.1 11.3 -154.3 11.5 c -0.2 0.2 6.8 46.9 15.6 103.8 c 8.7 56.8 15.7 103.5 15.7 103.7 c -0.2 0.2 -41.6 -44 -92.2 -98.3 L 1259.8 598.3 L 701.6 638.9 c -306.9 22.3 -561 40.5 -564.5 40.5 c -10.8 0 -18.7 -5.2 -23.3 -15.3 l -2.8 -5.9 l -4.6 -262.6 c -5.2 -296.9 -5.2 -298.1 -3.4 -303.8 c 2.6 -7.6 8.3 -13.7 16.2 -16.7 c 4 -1.6 6.5 -1.7 23.4 -1.2 c 10.4 0.3 363.2 8.6 783.9 18.4 z" />
    
    <!-- Path cinza -->
    <path fill="#6e6e6e" d="M 173.2 47.4 C 152.8 52.7 137.1 70.5 133 93 C 132 98.6 136.1 669.2 137.3 682.4 c 1.3 14.8 5.8 25.1 15.6 35.7 c 6.9 7.5 16.7 13 27 15.2 c 7 1.5 9.9 1.3 588.6 -36.2 c 319.9 -20.6 582.4 -37.5 583.3 -37.5 c 1.3 0 33.3 37.8 106.9 126.4 c 57.9 69.5 105.2 126 105.4 125.7 c 0.1 -0.4 -7.9 -59.7 -17.8 -131.9 c -9.9 -72.2 -17.9 -131.5 -17.8 -131.6 c 0.2 -0.2 61.8 -4.2 137 -9 c 75.2 -4.8 139.6 -9.1 143 -9.7 c 12.4 -1.8 21.9 -6.8 30.9 -16.4 c 9.9 -10.6 15.2 -23 16 -37.4 c 0.4 -8.3 -30.5 -417.6 -32.3 -427.3 c -2.1 -11 -8.5 -23.8 -16.4 -32.7 c -8.6 -9.6 -22.1 -17.4 -33.9 -19.8 c -5.8 -1.1 -160.6 -6.1 -792.1 -25.6 C 549.1 56.9 191.9 46 186.9 46.1 c -5 0 -11.1 0.6 -13.7 1.3 z m 834 59.3 c 418.1 9.8 762.1 17.9 764.7 18.2 c 9 0.9 18.8 8.3 23.1 17.5 c 1.1 2.4 2.4 7.2 2.8 10.8 c 0.9 6.9 22.1 379.8 22.2 391.3 c 0.1 4.5 -0.3 8.5 -1.4 11.6 c -2.7 8.5 -11.7 17.2 -19.7 18.9 c -1.4 0.3 -71.4 5.5 -155.6 11.5 c -84.1 6.1 -153.1 11.2 -153.3 11.4 c -0.2 0.2 6.8 46.5 15.5 102.9 c 8.6 56.3 15.6 102.6 15.6 102.8 c -0.2 0.2 -41.4 -43.6 -91.7 -97.4 L 1338.1 608.4 L 783.7 648.6 c -305 22.1 -557.3 40.2 -560.8 40.2 c -10.8 0 -18.6 -5.1 -23.2 -15.2 l -2.7 -5.8 l -4.5 -260.4 c -5.1 -294.4 -5.1 -295.5 -3.3 -301.2 c 2.6 -7.6 8.3 -13.6 16.1 -16.5 c 4 -1.6 6.4 -1.6 23.3 -1.2 c 10.3 0.3 360.9 8.5 778.9 18.3 z" transform="matrix(1,0,0,1,-40,40)" />
</svg>
