<?xml version="1.0" standalone="no"?>
<!DOCTYPE svg PUBLIC "-//W3C//DTD SVG 20010904//EN"
 "http://www.w3.org/TR/2001/REC-SVG-20010904/DTD/svg10.dtd">
<svg version="1.0" xmlns="http://www.w3.org/2000/svg"
 width="2018.000000pt" height="951.000000pt" viewBox="0 0 2018.000000 951.000000"
 preserveAspectRatio="xMidYMid meet">

<g transform="translate(0.000000,951.000000) scale(0.100000,-0.100000)"
fill="#000000" stroke="none">
<path d="M490 9485 c-239 -58 -423 -253 -471 -500 -12 -61 36 -6311 50 -6455
15 -162 68 -275 182 -391 81 -82 195 -142 316 -166 82 -16 116 -14 6885 396
3742 226 6812 411 6823 411 15 0 389 -414 1250 -1384 677 -761 1231 -1380
1233 -1377 1 4 -92 654 -208 1445 -116 791 -209 1440 -208 1441 2 2 723 46
1603 99 880 53 1633 100 1673 106 145 20 256 75 362 180 116 116 178 252 187
410 5 91 -357 4574 -378 4680 -24 121 -99 261 -192 358 -101 105 -258 191
-397 217 -68 12 -1878 67 -9265 280 -5049 146 -9227 265 -9285 264 -58 0 -130
-7 -160 -14z m9755 -650 c4890 -107 8914 -196 8944 -199 105 -10 220 -91 270
-192 13 -26 28 -79 33 -118 10 -76 258 -4160 260 -4286 1 -49 -4 -93 -16 -127
-31 -93 -137 -188 -231 -207 -16 -3 -835 -60 -1820 -126 -984 -67 -1791 -123
-1793 -125 -2 -2 79 -509 181 -1127 101 -617 183 -1124 182 -1126 -2 -2 -484
478 -1072 1067 l-1068 1071 -6485 -440 c-3567 -242 -6519 -440 -6560 -440
-126 0 -217 56 -271 166 l-32 64 -53 2852 c-60 3224 -60 3237 -39 3299 30 83
97 149 188 181 47 17 75 18 272 13 121 -3 4221 -93 9110 -200z"/>
</g>
</svg>
