<svg id="visual" viewBox="0 0 900 600" width="900" height="600" xmlns="http://www.w3.org/2000/svg" xmlns:xlink="http://www.w3.org/1999/xlink" version="1.1"><path d="M0 127L13.7 116C27.3 105 54.7 83 82 79C109.3 75 136.7 89 163.8 97C191 105 218 107 245.2 106C272.3 105 299.7 101 327 98C354.3 95 381.7 93 409 102C436.3 111 463.7 131 491 126C518.3 121 545.7 91 573 90C600.3 89 627.7 117 654.8 134C682 151 709 157 736.2 150C763.3 143 790.7 123 818 116C845.3 109 872.7 115 886.3 118L900 121L900 0L886.3 0C872.7 0 845.3 0 818 0C790.7 0 763.3 0 736.2 0C709 0 682 0 654.8 0C627.7 0 600.3 0 573 0C545.7 0 518.3 0 491 0C463.7 0 436.3 0 409 0C381.7 0 354.3 0 327 0C299.7 0 272.3 0 245.2 0C218 0 191 0 163.8 0C136.7 0 109.3 0 82 0C54.7 0 27.3 0 13.7 0L0 0Z" fill="#6198ff"></path><path d="M0 211L13.7 202C27.3 193 54.7 175 82 167C109.3 159 136.7 161 163.8 161C191 161 218 159 245.2 161C272.3 163 299.7 169 327 175C354.3 181 381.7 187 409 200C436.3 213 463.7 233 491 217C518.3 201 545.7 149 573 147C600.3 145 627.7 193 654.8 221C682 249 709 257 736.2 251C763.3 245 790.7 225 818 209C845.3 193 872.7 181 886.3 175L900 169L900 119L886.3 116C872.7 113 845.3 107 818 114C790.7 121 763.3 141 736.2 148C709 155 682 149 654.8 132C627.7 115 600.3 87 573 88C545.7 89 518.3 119 491 124C463.7 129 436.3 109 409 100C381.7 91 354.3 93 327 96C299.7 99 272.3 103 245.2 104C218 105 191 103 163.8 95C136.7 87 109.3 73 82 77C54.7 81 27.3 103 13.7 114L0 125Z" fill="#3c80ff"></path><path d="M0 301L13.7 318C27.3 335 54.7 369 82 390C109.3 411 136.7 419 163.8 403C191 387 218 347 245.2 329C272.3 311 299.7 315 327 313C354.3 311 381.7 303 409 308C436.3 313 463.7 331 491 342C518.3 353 545.7 357 573 359C600.3 361 627.7 361 654.8 370C682 379 709 397 736.2 393C763.3 389 790.7 363 818 348C845.3 333 872.7 329 886.3 327L900 325L900 167L886.3 173C872.7 179 845.3 191 818 207C790.7 223 763.3 243 736.2 249C709 255 682 247 654.8 219C627.7 191 600.3 143 573 145C545.7 147 518.3 199 491 215C463.7 231 436.3 211 409 198C381.7 185 354.3 179 327 173C299.7 167 272.3 161 245.2 159C218 157 191 159 163.8 159C136.7 159 109.3 157 82 165C54.7 173 27.3 191 13.7 200L0 209Z" fill="#0066ff"></path><path d="M0 493L13.7 499C27.3 505 54.7 517 82 521C109.3 525 136.7 521 163.8 516C191 511 218 505 245.2 502C272.3 499 299.7 499 327 505C354.3 511 381.7 523 409 527C436.3 531 463.7 527 491 530C518.3 533 545.7 543 573 542C600.3 541 627.7 529 654.8 529C682 529 709 541 736.2 536C763.3 531 790.7 509 818 505C845.3 501 872.7 515 886.3 522L900 529L900 323L886.3 325C872.7 327 845.3 331 818 346C790.7 361 763.3 387 736.2 391C709 395 682 377 654.8 368C627.7 359 600.3 359 573 357C545.7 355 518.3 351 491 340C463.7 329 436.3 311 409 306C381.7 301 354.3 309 327 311C299.7 313 272.3 309 245.2 327C218 345 191 385 163.8 401C136.7 417 109.3 409 82 388C54.7 367 27.3 333 13.7 316L0 299Z" fill="#0059dd"></path><path d="M0 601L13.7 601C27.3 601 54.7 601 82 601C109.3 601 136.7 601 163.8 601C191 601 218 601 245.2 601C272.3 601 299.7 601 327 601C354.3 601 381.7 601 409 601C436.3 601 463.7 601 491 601C518.3 601 545.7 601 573 601C600.3 601 627.7 601 654.8 601C682 601 709 601 736.2 601C763.3 601 790.7 601 818 601C845.3 601 872.7 601 886.3 601L900 601L900 527L886.3 520C872.7 513 845.3 499 818 503C790.7 507 763.3 529 736.2 534C709 539 682 527 654.8 527C627.7 527 600.3 539 573 540C545.7 541 518.3 531 491 528C463.7 525 436.3 529 409 525C381.7 521 354.3 509 327 503C299.7 497 272.3 497 245.2 500C218 503 191 509 163.8 514C136.7 519 109.3 523 82 519C54.7 515 27.3 503 13.7 497L0 491Z" fill="#004cbb"></path></svg>