<svg id="visual" viewBox="0 0 900 600" width="900" height="600" xmlns="http://www.w3.org/2000/svg" xmlns:xlink="http://www.w3.org/1999/xlink" version="1.1"><path d="M0 91L82 67L164 115L245 91L327 91L409 73L491 97L573 43L655 43L736 109L818 49L900 109L900 0L818 0L736 0L655 0L573 0L491 0L409 0L327 0L245 0L164 0L82 0L0 0Z" fill="#6e6e6e"></path><path d="M0 169L82 235L164 199L245 145L327 229L409 223L491 223L573 181L655 217L736 205L818 193L900 235L900 107L818 47L736 107L655 41L573 41L491 95L409 71L327 89L245 89L164 113L82 65L0 89Z" fill="#606060"></path><path d="M0 265L82 289L164 283L245 199L327 331L409 325L491 319L573 229L655 259L736 277L818 247L900 277L900 233L818 191L736 203L655 215L573 179L491 221L409 221L327 227L245 143L164 197L82 233L0 167Z" fill="#525252"></path><path d="M0 511L82 469L164 463L245 385L327 493L409 517L491 409L573 493L655 409L736 475L818 439L900 409L900 275L818 245L736 275L655 257L573 227L491 317L409 323L327 329L245 197L164 281L82 287L0 263Z" fill="#444444"></path><path d="M0 601L82 601L164 601L245 601L327 601L409 601L491 601L573 601L655 601L736 601L818 601L900 601L900 407L818 437L736 473L655 407L573 491L491 407L409 515L327 491L245 383L164 461L82 467L0 509Z" fill="#373737"></path></svg>